<svg xmlns="http://www.w3.org/2000/svg" viewBox="0 0 400 720" width="400" height="720">
  <defs>
    <linearGradient id="skin" x1="0%" y1="0%" x2="100%" y2="100%">
      <stop offset="0%" stop-color="#f8e4dc"/>
      <stop offset="45%" stop-color="#e8c4b8"/>
      <stop offset="100%" stop-color="#c99a8e"/>
    </linearGradient>
    <linearGradient id="hair" x1="20%" y1="0%" x2="80%" y2="100%">
      <stop offset="0%" stop-color="#4a3028"/>
      <stop offset="100%" stop-color="#2a1814"/>
    </linearGradient>
    <radialGradient id="cheek" cx="50%" cy="50%" r="50%">
      <stop offset="0%" stop-color="#ffb4b4" stop-opacity="0.55"/>
      <stop offset="100%" stop-color="#ffb4b4" stop-opacity="0"/>
    </radialGradient>
    <filter id="soft" x="-10%" y="-10%" width="120%" height="120%">
      <feGaussianBlur stdDeviation="1.2" result="b"/>
      <feMerge>
        <feMergeNode in="b"/>
        <feMergeNode in="SourceGraphic"/>
      </feMerge>
    </filter>
  </defs>
  <!-- ©ųn·ėØĆČĖauīW’H(×ģü¹ŪėĄü	 -->
  <path fill="url(#hair)" filter="url(#soft)"
        d="M60 180 C40 120 80 40 200 20 C320 40 360 120 340 180 C380 200 400 280 400 400 L400 720 L0 720 L0 400 C0 280 20 200 60 180Z"/>
  <path fill="url(#skin)" filter="url(#soft)"
        d="M120 220 C120 140 160 100 200 100 C240 100 280 140 280 220 C300 240 320 300 320 380 L320 720 L80 720 L80 380 C80 300 100 240 120 220Z"/>
  <ellipse cx="155" cy="255" rx="28" ry="18" fill="url(#cheek)"/>
  <ellipse cx="245" cy="255" rx="28" ry="18" fill="url(#cheek)"/>
  <path fill="none" stroke="#6b4a42" stroke-width="2" stroke-linecap="round"
        d="M175 235 Q200 248 225 235"/>
  <ellipse cx="175" cy="210" rx="6" ry="8" fill="#3a2a28"/>
  <ellipse cx="225" cy="210" rx="6" ry="8" fill="#3a2a28"/>
  <path fill="#c45c6a" opacity="0.35"
        d="M188 258 Q200 268 212 258 Q200 262 188 258Z"/>
</svg>
